<svg width="1200" height="800" viewBox="0 0 1200 800" fill="none" xmlns="http://www.w3.org/2000/svg">
  <rect width="1200" height="800" rx="36" fill="#FFF7ED"/>
  <rect x="36" y="36" width="1128" height="728" rx="28" fill="url(#paint0_linear)"/>
  <rect x="92" y="102" width="420" height="88" rx="22" fill="#111827" fill-opacity="0.92"/>
  <text x="126" y="154" fill="#F8FAFC" font-size="38" font-family="Arial, sans-serif" font-weight="700">Festival Cardnews Studio</text>
  <text x="96" y="236" fill="#334155" font-size="24" font-family="Arial, sans-serif">AI-assisted festival discovery, cardnews generation,</text>
  <text x="96" y="272" fill="#334155" font-size="24" font-family="Arial, sans-serif">Instagram scheduling, Canva handoff, analytics.</text>
  <rect x="96" y="342" width="320" height="340" rx="28" fill="#FFFFFF" fill-opacity="0.92"/>
  <rect x="440" y="342" width="320" height="340" rx="28" fill="#FFFFFF" fill-opacity="0.84"/>
  <rect x="784" y="342" width="320" height="340" rx="28" fill="#111827" fill-opacity="0.94"/>
  <rect x="126" y="386" width="126" height="28" rx="14" fill="#F97316"/>
  <rect x="126" y="438" width="220" height="18" rx="9" fill="#CBD5E1"/>
  <rect x="126" y="472" width="186" height="18" rx="9" fill="#E2E8F0"/>
  <rect x="126" y="530" width="258" height="110" rx="18" fill="url(#paint1_linear)"/>
  <rect x="470" y="386" width="150" height="28" rx="14" fill="#EC4899"/>
  <rect x="470" y="438" width="212" height="18" rx="9" fill="#CBD5E1"/>
  <rect x="470" y="472" width="180" height="18" rx="9" fill="#E2E8F0"/>
  <rect x="470" y="522" width="260" height="20" rx="10" fill="#FDE68A"/>
  <rect x="470" y="562" width="224" height="20" rx="10" fill="#FED7AA"/>
  <rect x="814" y="388" width="138" height="28" rx="14" fill="#F8FAFC" fill-opacity="0.18"/>
  <text x="818" y="458" fill="#F8FAFC" font-size="38" font-family="Arial, sans-serif" font-weight="700">Publish Queue</text>
  <text x="818" y="506" fill="#CBD5E1" font-size="22" font-family="Arial, sans-serif">Drafts</text>
  <text x="1016" y="506" fill="#F8FAFC" font-size="22" font-family="Arial, sans-serif" font-weight="700">128</text>
  <text x="818" y="548" fill="#CBD5E1" font-size="22" font-family="Arial, sans-serif">Scheduled</text>
  <text x="1016" y="548" fill="#F8FAFC" font-size="22" font-family="Arial, sans-serif" font-weight="700">22</text>
  <text x="818" y="590" fill="#CBD5E1" font-size="22" font-family="Arial, sans-serif">Published</text>
  <text x="1016" y="590" fill="#F8FAFC" font-size="22" font-family="Arial, sans-serif" font-weight="700">96</text>
  <defs>
    <linearGradient id="paint0_linear" x1="80" y1="72" x2="1096" y2="712" gradientUnits="userSpaceOnUse">
      <stop stop-color="#FFF1F2"/>
      <stop offset="0.48" stop-color="#F8FAFC"/>
      <stop offset="1" stop-color="#FFEDD5"/>
    </linearGradient>
    <linearGradient id="paint1_linear" x1="126" y1="530" x2="384" y2="640" gradientUnits="userSpaceOnUse">
      <stop stop-color="#FB7185"/>
      <stop offset="1" stop-color="#F59E0B"/>
    </linearGradient>
  </defs>
</svg>
