<svg width="1200" height="800" viewBox="0 0 1200 800" fill="none" xmlns="http://www.w3.org/2000/svg">
  <rect width="1200" height="800" rx="36" fill="#0F172A"/>
  <rect x="36" y="36" width="1128" height="728" rx="28" fill="url(#paint0_linear)"/>
  <text x="90" y="146" fill="#F8FAFC" font-size="46" font-family="Arial, sans-serif" font-weight="700">NexusLuxor Commerce Console</text>
  <text x="90" y="198" fill="#BFDBFE" font-size="24" font-family="Arial, sans-serif">Firebase-based kiosk, orders, payments, reconciliation, SMS jobs.</text>
  <rect x="90" y="258" width="310" height="430" rx="28" fill="#FFFFFF" fill-opacity="0.08" stroke="#334155"/>
  <rect x="434" y="258" width="310" height="430" rx="28" fill="#FFFFFF" fill-opacity="0.08" stroke="#334155"/>
  <rect x="778" y="258" width="332" height="430" rx="28" fill="#FFFFFF" fill-opacity="0.08" stroke="#334155"/>
  <text x="122" y="316" fill="#93C5FD" font-size="24" font-family="Arial, sans-serif" font-weight="700">Store / Kiosk</text>
  <rect x="122" y="344" width="112" height="24" rx="12" fill="#2563EB"/>
  <rect x="122" y="396" width="244" height="18" rx="9" fill="#CBD5E1"/>
  <rect x="122" y="430" width="210" height="18" rx="9" fill="#94A3B8"/>
  <rect x="122" y="484" width="246" height="140" rx="20" fill="#0F172A" fill-opacity="0.8"/>
  <text x="466" y="316" fill="#A7F3D0" font-size="24" font-family="Arial, sans-serif" font-weight="700">Admin Dashboard</text>
  <rect x="466" y="350" width="246" height="82" rx="18" fill="#F8FAFC" fill-opacity="0.9"/>
  <rect x="466" y="458" width="112" height="112" rx="20" fill="#14B8A6"/>
  <rect x="600" y="458" width="112" height="112" rx="20" fill="#38BDF8"/>
  <text x="810" y="316" fill="#FDE68A" font-size="24" font-family="Arial, sans-serif" font-weight="700">Payments / Webhooks</text>
  <text x="810" y="376" fill="#F8FAFC" font-size="26" font-family="Arial, sans-serif" font-weight="700">Order Created</text>
  <text x="810" y="420" fill="#CBD5E1" font-size="22" font-family="Arial, sans-serif">eFinance webhook verified</text>
  <text x="810" y="462" fill="#CBD5E1" font-size="22" font-family="Arial, sans-serif">Idempotent capture applied</text>
  <text x="810" y="504" fill="#CBD5E1" font-size="22" font-family="Arial, sans-serif">SMS job queued</text>
  <rect x="810" y="560" width="220" height="58" rx="18" fill="#F59E0B"/>
  <text x="848" y="596" fill="#111827" font-size="22" font-family="Arial, sans-serif" font-weight="700">Reconcile CSV</text>
  <defs>
    <linearGradient id="paint0_linear" x1="36" y1="36" x2="1164" y2="764" gradientUnits="userSpaceOnUse">
      <stop stop-color="#111827"/>
      <stop offset="0.55" stop-color="#0F172A"/>
      <stop offset="1" stop-color="#1E293B"/>
    </linearGradient>
  </defs>
</svg>
